<svg xmlns="http://www.w3.org/2000/svg" xmlns:xlink="http://www.w3.org/1999/xlink" id="exportSVG" width="128" height="128" data-info="draw.ninja" data-name="monochromeslime" version="1.1" viewBox="0 0 128 128" visibility="visible" style="position:fixed;top:0;left:0"><defs id="defsExport"><filter id="filter0"><feGaussianBlur stdDeviation="0"/></filter><pattern id="pattern0" width="10" height="10" x="0" y="0" fill="#B3B3B3" fill-opacity="1" stroke="none" data-draw="1" data-height="10" data-multx="1" data-multy="1" data-source="Pattern 0" data-transf="0" data-transs="0" data-width="10" data-x="0" data-y="0" patternTransform="matrix(1,0,0,1,0,0)" patternUnits="userSpaceOnUse"><path d="M0 0 L5 0 L5 5 L0 5 L0 0 Z" transform="matrix(1,0,0,1,0,0)"/></pattern><pattern id="pattern1" width="10" height="10" x="0" y="0" fill="#B3B3B3" fill-opacity="1" stroke="none" data-draw="1" data-height="10" data-multx="1" data-multy="1" data-source="Pattern 1" data-transf="0" data-transs="0" data-width="10" data-x="0" data-y="0" patternTransform="matrix(1,0,0,1,0,0)" patternUnits="userSpaceOnUse"><path d="M0 5 L5 0 L10 5 L5 10 L0 5 Z" transform="matrix(1,0,0,1,0,0)"/></pattern><pattern id="pattern2" width="10" height="10" x="0" y="0" fill="#B3B3B3" fill-opacity="1" stroke="none" data-draw="1" data-height="10" data-multx="1" data-multy="1" data-source="Pattern 2" data-transf="0" data-transs="0" data-width="10" data-x="0" data-y="0" patternTransform="matrix(1,0,0,1,0,0)" patternUnits="userSpaceOnUse"><path d="M0 9 L5 1 L10 9 L0 9 Z" transform="matrix(1,0,0,1,0,0)"/></pattern><pattern id="pattern3" width="10" height="10" x="0" y="0" fill="#B3B3B3" fill-opacity="1" stroke="none" data-draw="1" data-height="10" data-multx="1" data-multy="1" data-source="Pattern 3" data-transf="0" data-transs="0" data-width="10" data-x="0" data-y="0" patternTransform="matrix(1,0,0,1,0,0)" patternUnits="userSpaceOnUse"><path d="M0 5 C0 2.25 2.25 0 5 0 C7.75 0 10 2.25 10 5 C10 7.75 7.75 10 5 10 C2.25 10 0 7.75 0 5 Z" transform="matrix(1,0,0,1,0,0)"/></pattern><pattern id="pattern4" width="10" height="10" x="0" y="0" fill="#B3B3B3" fill-opacity="1" stroke="none" data-draw="1" data-height="10" data-multx="1" data-multy="1" data-source="Pattern 4" data-transf="0" data-transs="0" data-width="10" data-x="0" data-y="0" patternTransform="matrix(1,0,0,1,0,0)" patternUnits="userSpaceOnUse"><path d="M0 5 L4 4 L5 0 L6 4 L10 5 L6 6 L5 10 L4 6 L0 5 Z" transform="matrix(1,0,0,1,0,0)"/></pattern><pattern id="pattern5" width="10" height="10" x="0" y="0" fill="#B3B3B3" fill-opacity="1" stroke="none" data-draw="1" data-height="10" data-multx="1" data-multy="1" data-source="Pattern 5" data-transf="0" data-transs="0" data-width="10" data-x="0" data-y="0" patternTransform="matrix(1,0,0,1,0,0)" patternUnits="userSpaceOnUse"><path d="M5 10 C-5 2.75 3 -1.75 5 1 C7 -1.75 15 2.75 5 10 Z" transform="matrix(1,0,0,1,0,0)"/></pattern><pattern id="pattern6" width="10" height="10" x="0" y="0" fill="#B3B3B3" fill-opacity="1" stroke="none" data-draw="1" data-height="10" data-multx="1" data-multy="1" data-source="Pattern 6" data-transf="0" data-transs="0" data-width="10" data-x="0" data-y="0" patternTransform="matrix(1,0,0,1,0,0)" patternUnits="userSpaceOnUse"><path d="M3 0 L7 0 L7 10 L3 10 L3 0 Z" transform="matrix(1,0,0,1,0,0)"/></pattern><pattern id="pattern7" width="10" height="10" x="0" y="0" fill="#B3B3B3" fill-opacity="1" stroke="none" data-draw="1" data-height="10" data-multx="1" data-multy="1" data-source="Pattern 7" data-transf="0" data-transs="0" data-width="10" data-x="0" data-y="0" patternTransform="matrix(1,0,0,1,0,0)" patternUnits="userSpaceOnUse"><path d="M10 3 L10 7 L0 7 L0 3 L10 3 Z" transform="matrix(1,0,0,1,0,0)"/></pattern><pattern id="pattern8" width="10" height="10" x="0" y="0" fill="#B3B3B3" fill-opacity="1" stroke="none" data-draw="1" data-height="10" data-multx="1" data-multy="1" data-source="Pattern 8" data-transf="0" data-transs="0" data-width="10" data-x="0" data-y="0" patternTransform="matrix(1,0,0,1,0,0)" patternUnits="userSpaceOnUse"><path d="M0 10 L3 3 L10 0 L7 7 L0 10 Z" transform="matrix(1,0,0,1,0,0)"/></pattern><pattern id="pattern9" width="10" height="10" x="0" y="0" fill="#B3B3B3" fill-opacity="1" stroke="none" data-draw="1" data-height="10" data-multx="1" data-multy="1" data-source="Pattern 9" data-transf="0" data-transs="0" data-width="10" data-x="0" data-y="0" patternTransform="matrix(1,0,0,1,0,0)" patternUnits="userSpaceOnUse"><path d="M0 4 L10 4 L10 6 L0 6 L0 4 Z M4 10 L4 0 L6 0 L6 10 L4 10 Z" transform="matrix(1,0,0,1,0,0)"/></pattern><linearGradient id="linearSystem" x1="0%" x2="100%" y1="50%" y2="50%" gradientUnits="objectBoundingBox" spreadMethod="pad"><stop offset="50%" stop-color="#D0D0D0" stop-opacity="1"/><stop offset="100%" stop-color="transparent" stop-opacity="1"/></linearGradient><linearGradient id="linearSystem1" x1="0%" x2="100%" y1="50%" y2="50%" gradientUnits="objectBoundingBox" spreadMethod="pad"><stop offset="30%" stop-color="#D0D0D0" stop-opacity="1"/><stop offset="100%" stop-color="transparent" stop-opacity="1"/></linearGradient><linearGradient id="linearSystem2" x1="0%" x2="50%" y1="50%" y2="50%" gradientUnits="objectBoundingBox" spreadMethod="repeat"><stop offset="30%" stop-color="#D0D0D0" stop-opacity="1"/><stop offset="100%" stop-color="transparent" stop-opacity="1"/></linearGradient><linearGradient id="linearSystem3" x1="0%" x2="50%" y1="50%" y2="50%" gradientUnits="objectBoundingBox" spreadMethod="reflect"><stop offset="30%" stop-color="#D0D0D0" stop-opacity="1"/><stop offset="100%" stop-color="transparent" stop-opacity="1"/></linearGradient><radialGradient id="radialSystem" cx=".5" cy=".5" r=".5" fx=".5" fy=".5" gradientUnits="objectBoundingBox" spreadMethod="pad"><stop offset="50%" stop-color="#D0D0D0" stop-opacity="1"/><stop offset="100%" stop-color="transparent" stop-opacity="1"/></radialGradient><pattern id="patternSystem" width="6" height="8" x="0" y="0" patternUnits="userSpaceOnUse"><path fill="none" stroke="#D0D0D0" stroke-width="5" d="M0 0 L0 10"/></pattern><linearGradient id="linear0" x1="0%" x2="100%" y1="50%" y2="50%" gradientUnits="objectBoundingBox" spreadMethod="pad"><stop offset="0%" stop-color="#FF8000" stop-opacity="1"/><stop offset="100%" stop-color="#FF0" stop-opacity="1"/></linearGradient><linearGradient id="linear1" x1="0%" x2="100%" y1="50%" y2="50%" gradientUnits="objectBoundingBox" spreadMethod="pad"><stop offset="0%" stop-color="#FF0" stop-opacity="1"/><stop offset="100%" stop-color="#FF8000" stop-opacity="1"/></linearGradient><linearGradient id="linearImport" x1="0%" x2="100%" y1="50%" y2="50%" gradientUnits="objectBoundingBox" spreadMethod="pad"><stop offset="0%" stop-color="#FFF" stop-opacity=".1"/><stop offset="100%" stop-color="#000" stop-opacity=".1"/></linearGradient><radialGradient id="radial0" cx=".5" cy=".5" r=".5" fx=".5" fy=".5" gradientUnits="objectBoundingBox" spreadMethod="pad"><stop offset="0%" stop-color="#FF8000" stop-opacity="1"/><stop offset="100%" stop-color="#FF0" stop-opacity="1"/></radialGradient><radialGradient id="radial1" cx=".5" cy=".5" r=".5" fx=".5" fy=".5" gradientUnits="objectBoundingBox" spreadMethod="pad"><stop offset="0%" stop-color="#FF0" stop-opacity="1"/><stop offset="100%" stop-color="#FF8000" stop-opacity="1"/></radialGradient><radialGradient id="radialImport" cx=".5" cy=".5" r=".5" fx=".5" fy=".5" gradientUnits="objectBoundingBox" spreadMethod="pad"><stop offset="0%" stop-color="#FFF" stop-opacity=".1"/><stop offset="100%" stop-color="#000" stop-opacity=".1"/></radialGradient></defs><rect id="pageExport" width="128" height="128" x="0" y="0" fill="none" fill-opacity="0" stroke="none" stroke-width="0"/><g id="objectsExport" visibility="visible"><path id="path0" fill="#FFF" fill-opacity="1" fill-rule="evenodd" stroke="#000" stroke-dasharray="none" stroke-linecap="round" stroke-linejoin="round" stroke-opacity="1" stroke-width="2" marker-end="none" marker-start="none" d="M10.889 63.056 C10.889 40.078 35.289 21.278 65.111 21.278 C94.933 21.278 119.333 40.078 119.333 63.056 C119.333 86.033 94.933 104.833 65.111 104.833 C35.289 104.833 10.889 86.033 10.889 63.056 Z" data-centerx="65.114" data-centery="63.05" data-edit="1" data-grad="0" data-group="0" data-name="curve" data-sw="2" data-title="curve" deg="0" filter="none" visibility="visible"/><path id="path5" fill="none" fill-opacity="1" fill-rule="evenodd" stroke="#000" stroke-dasharray="none" stroke-linecap="round" stroke-linejoin="round" stroke-opacity="1" stroke-width="2" marker-end="none" marker-start="none" d="M43.556 41.944 C43.556 41.944 43.556 47.055 43.556 49.611 C43.556 52.166 43.556 55.055 43.556 55.055" data-centerx="43.554" data-centery="48.5" data-edit="1" data-grad="0" data-group="0" data-name="curve" data-sw="2" data-title="curve" deg="0" filter="none" visibility="visible"/><path id="path6" fill="none" fill-opacity="1" fill-rule="evenodd" stroke="#000" stroke-dasharray="none" stroke-linecap="round" stroke-linejoin="round" stroke-opacity="1" stroke-width="2" marker-end="none" marker-start="none" d="M74.222 41.723 C74.222 41.723 74.333 46.834 74.388 49.389 C74.444 51.945 74.666 54.611 74.666 54.611" data-centerx="83.999" data-centery="46.833" data-edit="1" data-grad="0" data-group="0" data-name="curve" data-sw="2" data-title="curve" deg="0" filter="none" visibility="visible"/></g></svg>